<?xml version="1.0" standalone="no"?>
<!DOCTYPE svg PUBLIC "-//W3C//DTD SVG 20010904//EN"
 "http://www.w3.org/TR/2001/REC-SVG-20010904/DTD/svg10.dtd">
<svg version="1.0" xmlns="http://www.w3.org/2000/svg"
 width="36864.000000pt" height="36864.000000pt" viewBox="0 0 36864.000000 36864.000000"
 preserveAspectRatio="xMidYMid meet">
<metadata>
Created by potrace 1.16, written by Peter Selinger 2001-2019
</metadata>
<g transform="translate(0.000000,36864.000000) scale(7.200000,-7.200000)"
fill="#000000" stroke="none">
<path d="M2837 4623 c-3 -5 -8 -30 -12 -58 -13 -102 -3 -94 -113 -97 l-97 -3
-3 -36 c-2 -21 2 -40 10 -47 8 -6 47 -12 88 -14 74 -3 75 -3 72 -28 -7 -49
-64 -217 -114 -333 -27 -65 -47 -124 -44 -132 8 -22 82 -41 100 -26 22 19 91
202 141 374 48 170 33 154 158 178 68 13 89 39 68 85 -11 24 -15 26 -49 20
-114 -21 -116 -21 -109 5 4 13 10 41 13 61 6 34 4 38 -20 48 -32 12 -83 13
-89 3z"/>
<path d="M1857 4614 c-14 -25 -17 -72 -5 -82 16 -13 271 -52 340 -52 53 0 72
19 66 68 -3 31 -8 32 -203 51 -60 7 -129 14 -151 17 -23 4 -44 2 -47 -2z"/>
<path d="M1915 4380 c-49 -11 -110 -26 -135 -33 -43 -13 -45 -14 -44 -51 1
-21 9 -45 17 -54 15 -14 25 -13 119 17 57 18 135 35 173 38 60 4 77 1 115 -19
36 -19 48 -31 58 -65 38 -118 -83 -243 -266 -272 -73 -12 -82 -16 -82 -40 0
-34 39 -71 74 -71 46 0 139 26 204 58 223 107 268 386 78 484 -59 31 -192 34
-311 8z"/>
<path d="M3107 4340 c-75 -7 -89 -18 -85 -65 l3 -30 164 -3 c125 -2 166 1 173
10 14 23 9 67 -9 76 -26 14 -168 21 -246 12z"/>
<path d="M2975 4106 c-15 -11 -20 -30 -23 -83 -4 -67 -3 -72 27 -106 46 -52
101 -67 246 -67 143 0 158 6 153 65 l-3 40 -121 -4 c-98 -3 -127 0 -153 13
-38 20 -53 54 -44 97 10 50 -39 77 -82 45z"/>
<path d="M2893 3622 c-7 -4 -19 -57 -28 -117 -51 -346 -171 -706 -311 -938
-29 -48 -51 -93 -48 -100 2 -6 45 -39 95 -72 50 -33 97 -64 105 -70 9 -7 20
-6 32 1 24 15 160 290 202 409 l35 100 54 3 54 3 -6 -273 c-10 -469 -62 -727
-212 -1033 -82 -169 -165 -283 -293 -406 -58 -55 -105 -98 -106 -97 0 2 0 216
2 476 l4 472 86 0 c48 0 93 4 100 8 9 6 12 37 10 118 l-3 109 -780 0 -780 0
-3 -104 c-2 -67 1 -108 9 -117 10 -12 102 -14 556 -14 l544 0 -3 -445 c-3
-412 -4 -446 -21 -462 -16 -16 -37 -18 -167 -18 -81 0 -151 -3 -155 -6 -3 -4
5 -33 18 -65 14 -33 33 -85 42 -116 20 -71 25 -73 187 -64 195 12 276 46 321
136 l25 51 51 -58 c28 -32 61 -74 73 -93 13 -19 31 -36 39 -38 40 -7 225 185
330 343 107 159 211 404 270 635 l12 45 27 -105 c56 -211 154 -433 265 -600
55 -82 213 -252 273 -294 21 -15 45 -24 53 -21 8 3 29 30 47 60 18 30 55 79
82 108 28 30 50 59 50 65 0 5 -30 32 -67 59 -94 70 -218 202 -285 304 -139
209 -249 508 -293 794 -19 126 -38 437 -33 552 l3 88 163 3 c127 2 162 0 162
-10 0 -34 -72 -294 -104 -378 -20 -52 -35 -100 -34 -108 3 -14 177 -82 210
-82 10 0 24 10 32 23 23 34 91 245 134 417 67 261 75 300 63 313 -5 7 -48 32
-95 56 -69 35 -91 42 -113 35 -29 -8 -713 -18 -713 -10 0 2 13 60 30 128 16
68 38 172 49 231 16 90 16 110 5 121 -7 8 -55 21 -106 31 -51 9 -102 18 -113
21 -11 2 -25 1 -32 -4z"/>
<path d="M1126 3474 c-9 -23 -7 -187 2 -201 6 -10 130 -13 543 -15 l534 -3 3
-330 c2 -349 -1 -380 -42 -391 -12 -3 -51 -4 -86 -2 l-65 3 -5 285 -5 285
-364 3 c-260 2 -368 -1 -377 -9 -19 -16 -21 -658 -2 -677 16 -16 190 -16 206
0 7 7 12 29 12 50 l0 38 224 0 c179 0 226 -3 235 -14 6 -8 24 -51 40 -97 l28
-84 129 0 c143 1 209 16 257 60 67 63 77 133 77 573 l0 312 83 0 c51 0 88 5
95 12 15 15 16 171 2 199 -10 19 -29 19 -764 19 -678 0 -754 -2 -760 -16z
m664 -664 l0 -120 -155 0 -155 0 0 120 0 120 155 0 155 0 0 -120z"/>
<path d="M1256 1804 c-9 -24 -7 -737 2 -752 6 -9 36 -12 113 -10 l104 3 3 66
3 66 256 6 c142 4 261 11 265 15 5 5 7 145 6 313 l-3 304 -371 3 c-333 2 -372
1 -378 -14z m534 -299 l0 -125 -155 0 -155 0 0 125 0 125 155 0 155 0 0 -125z"/>
</g>
</svg>
